<svg width="487" height="490" viewBox="0 0 487 490" fill="none" xmlns="http://www.w3.org/2000/svg">
<path d="M468.434 337.926C452.82 376.78 427.793 411.787 394.971 437.872C319.766 497.651 208.146 507.027 124.026 460.621C150.777 428.403 192.221 412.602 232.601 401.527C272.986 390.452 315.096 382.433 350.937 360.78C393.34 335.162 423.833 290.866 433.302 242.238C442.778 193.61 431.279 141.389 402.84 100.823C371.22 55.7246 318.651 25.6548 263.66 22.5669C208.669 19.479 152.539 43.9083 118.329 87.0706C81.1871 133.937 71.6495 197.146 73.3615 256.924C75.1732 320.121 87.9668 382.427 100.711 444.347C52.8917 409.353 18.4328 356.522 5.68895 298.642C-29.8407 137.293 106.152 -17.1588 271.449 2.54526C366.844 13.9195 452.041 86.6286 478.27 179.054C493.05 231.144 488.598 287.747 468.434 337.932V337.926Z" fill="#141E39"/>
</svg>
