<svg width="584" height="650" viewBox="0 0 584 650" fill="none" xmlns="http://www.w3.org/2000/svg">
<path d="M450.658 475.174C423.914 515.977 388.795 549.984 343.158 566.152C221.205 609.375 84.0935 532.063 61.4801 404.215C53.8542 361.09 59.2613 315.516 77.8594 275.777C105.971 215.71 163.609 170.347 228.606 157.135C282.406 146.201 360.844 169.001 414.715 163.17C463.186 157.926 482.131 147.195 533.173 124.605C533.087 201.026 527.166 278.091 505.605 351.404C493.503 392.553 475.774 436.862 450.658 475.174Z" fill="#61B3FB"/>
<path d="M347.749 578.032L347.749 578.032C226.08 621.154 89.2893 544.014 66.7312 416.479C59.1224 373.45 64.5185 327.981 83.071 288.34C111.115 228.416 168.623 183.156 233.464 169.976C260.275 164.527 293.256 167.481 326.339 171.087C329.301 171.41 332.265 171.738 335.224 172.066C365.274 175.393 394.946 178.679 419.528 176.018C462.298 171.39 482.151 162.486 521.136 145.001C526.212 142.724 531.613 140.302 537.43 137.725C537.306 213.871 531.353 290.612 509.884 363.613C497.79 404.734 480.079 448.993 454.998 487.251L455.338 487.474L454.998 487.251C428.292 527.997 393.25 561.912 347.749 578.032Z" stroke="#141E39"/>
</svg>
