<svg width="396" height="482" viewBox="0 0 396 482" fill="none" xmlns="http://www.w3.org/2000/svg">
<g clip-path="url(#clip0_505_40)">
<path d="M251.019 39.3321C251.019 39.3321 229.74 3.85121 210.797 16.8374C191.809 29.8236 222.031 60.6383 222.031 60.6383C222.031 60.6383 166.389 83.4851 169.385 126.362C172.381 169.238 244.41 171.527 262.12 153.963C279.831 136.398 251.019 39.3321 251.019 39.3321Z" fill="white"/>
<path d="M381.818 21.1515C381.818 21.1515 386.664 56.8524 374.372 60.9904C362.037 65.1283 352.918 63.6316 352.918 63.6316C352.918 63.6316 334.327 50.0732 334.371 37.6152C334.371 17.9819 349.041 21.1515 381.862 21.1515H381.818Z" fill="#FD8753"/>
<path d="M127.092 16.2211C127.092 16.2211 120.748 54.1231 133.084 58.2611C145.419 62.3991 154.538 60.9024 154.538 60.9024C154.538 60.9024 181.852 40.3006 175.597 30.7921C171.411 24.4531 169.341 17.9379 161.411 17.4977C147.402 16.7054 127.092 16.2651 127.092 16.2651V16.2211Z" fill="#FD8753"/>
<path d="M281.417 74.3288C281.417 74.3288 288.994 66.493 287.32 53.947C286.174 45.407 282.518 42.5456 282.518 42.5456C282.518 42.5456 288.686 31.1882 271.504 31.2762C254.367 31.4083 244.014 39.4641 244.014 39.4641C244.014 39.4641 236.304 35.3702 232.516 44.3504C228.683 53.3307 231.723 66.9332 231.723 66.9332L281.417 74.3728V74.3288Z" fill="white"/>
<path d="M243.706 85.1579L243.529 105.76C243.529 105.76 247.186 111.703 259.257 112.803C268.244 113.595 271.152 109.017 271.152 109.017L269.125 90.9687L247.362 85.9943L243.706 85.1579Z" fill="#FD8753"/>
<path d="M243.397 85.8622C243.441 86.4345 243.662 87.0948 243.97 87.8872C248.552 98.3642 265.337 104.087 270.579 104.571L269.434 94.2262L243.397 85.8183V85.8622Z" fill="black"/>
<path d="M274.236 45.451C274.236 45.451 284.985 71.7755 280.491 86.2584C276.042 100.785 262.737 98.144 254.852 95.1066C246.966 92.0691 243.353 87.0948 243.353 87.0948C243.353 87.0948 235.82 89.4279 231.018 82.3845C226.216 75.3412 229.476 67.4614 233.749 65.7446C238.067 64.0278 243.045 67.2414 243.045 67.2414L239.256 59.5817C239.256 59.5817 256.878 21.5476 274.192 45.407L274.236 45.451Z" fill="#FD8753"/>
<path d="M243.089 67.2854C243.089 67.2854 254.191 69.9267 262.429 57.7329C270.623 45.5391 270.094 40.4326 270.094 40.4326L277.408 53.5509C277.408 53.5509 279.434 44.7027 276.086 38.8919C272.694 33.0812 268.949 34.1377 268.949 34.1377L244.058 39.4642L236.877 59.0095L243.089 67.2854Z" fill="white"/>
<path d="M272.209 78.6428C272.209 78.6428 271.989 78.6428 271.901 78.5988C271.416 78.4227 271.108 77.8944 271.284 77.3662C272.914 72.7 269.522 67.4615 269.478 67.4175C269.169 66.9773 269.301 66.361 269.742 66.0528C270.183 65.7447 270.799 65.8768 271.108 66.317C271.284 66.5811 275.073 72.3918 273.134 77.9825C273.002 78.3787 272.606 78.6428 272.209 78.6428Z" fill="black"/>
<path d="M241.591 79.6113C241.327 79.6113 241.062 79.4792 240.842 79.3031L234.014 71.5994C233.661 71.2033 233.705 70.587 234.102 70.2348C234.498 69.8826 235.115 69.9267 235.467 70.3229L242.296 78.0265C242.648 78.4227 242.604 79.039 242.208 79.3912C242.031 79.5673 241.811 79.6553 241.547 79.6553L241.591 79.6113Z" fill="black"/>
<path d="M234.19 77.3662C233.705 77.3662 233.309 77.0141 233.221 76.5298C233.176 76.0016 233.529 75.5174 234.058 75.4293L238.992 74.857C239.52 74.813 240.005 75.1652 240.049 75.6934C240.093 76.2217 239.741 76.7059 239.212 76.794L234.278 77.3662H234.146H234.19Z" fill="black"/>
<path d="M277.98 57.5128L273.178 56.5443C272.65 56.4122 272.297 55.928 272.429 55.3998C272.561 54.8715 273.046 54.5634 273.575 54.6514L278.156 55.6199C278.685 55.752 279.037 56.2362 278.905 56.7644C278.817 57.2046 278.421 57.5568 277.936 57.5568L277.98 57.5128Z" fill="black"/>
<path d="M258.64 59.8899C258.288 59.8899 257.935 59.6698 257.759 59.3176C257.539 58.8334 257.759 58.2611 258.244 58.041L265.953 54.4753C266.438 54.2552 267.011 54.4753 267.231 54.9595C267.451 55.4438 267.231 56.0161 266.746 56.2362L259.037 59.8019C259.037 59.8019 258.772 59.8899 258.64 59.8899Z" fill="black"/>
<path d="M277.584 68.1658C277.143 68.1658 276.747 67.8577 276.659 67.4615L275.381 62.7073C275.293 62.3991 275.381 62.0469 275.601 61.8268L277.099 60.11C277.452 59.7138 278.068 59.6698 278.465 60.022C278.861 60.3742 278.905 60.9905 278.553 61.3866L277.408 62.7073L278.553 66.9333C278.685 67.4615 278.377 67.9898 277.848 68.1218C277.76 68.1218 277.672 68.1218 277.584 68.1218V68.1658Z" fill="black"/>
<path d="M264.411 69.0022C263.971 69.0022 263.574 68.694 263.486 68.2979L262.209 63.5436C262.121 63.2354 262.209 62.8833 262.429 62.6192L264.5 60.3741C264.852 59.9779 265.469 59.9339 265.865 60.3301C266.262 60.6822 266.306 61.2985 265.909 61.6947L264.191 63.5436L265.337 67.7696C265.469 68.2979 265.16 68.8261 264.632 68.9582C264.544 68.9582 264.456 68.9582 264.367 68.9582L264.411 69.0022Z" fill="black"/>
<path d="M303.576 230.999C303.576 230.999 314.105 317.985 317.365 401.933C320.625 485.881 322.74 546.541 322.74 546.541L231.811 549.667L227.978 382.916L230.048 230.955H303.532L303.576 230.999Z" fill="#ECEBEB"/>
<path d="M152.115 300.861L171.147 323.091L131.322 355.887L105.197 332.556L152.115 300.861Z" fill="#FD8753"/>
<path d="M193.659 230.999C193.659 230.999 184.32 263.663 178.945 291.616C173.57 319.57 165.42 357.031 165.42 357.031C165.42 357.031 135.198 441.992 190.311 454.142C258.596 469.241 261.68 387.142 261.68 387.142L254.763 214.227L193.703 230.999H193.659Z" fill="#ECEBEB"/>
<path d="M244.322 103.074C244.322 103.074 226.7 98.4522 209.431 120.947C192.558 142.869 187.932 235.313 189.122 236.898C190.311 238.483 219.828 248.872 256.481 246.847C293.135 244.822 304.281 236.502 306.264 235.313C308.246 234.125 291.065 120.155 291.065 120.155C291.065 120.155 278.421 103.427 271.901 107.477C258.112 116.017 249.741 109.105 244.322 103.074Z" fill="#0A76D9"/>
<path d="M244.322 102.502C244.322 102.502 226.7 97.8799 209.431 120.375C192.558 142.297 187.932 234.741 189.122 236.326C190.311 237.911 219.828 248.3 256.481 246.275C293.135 244.25 304.281 235.93 306.264 234.741C308.246 233.552 291.065 119.582 291.065 119.582C291.065 119.582 278.421 102.854 271.901 106.904C258.112 115.444 249.741 108.533 244.322 102.502Z" fill="#0A76D9"/>
<path d="M113.744 259.261C116.827 256.708 121.453 257.06 124.185 260.097C135.066 272.115 159.032 304.558 156.741 306.627C153.834 309.269 124.229 323.972 124.229 323.972C124.229 323.972 133.789 338.675 118.942 346.686C107.576 352.849 87.1785 352.013 78.3234 351.309C75.5039 351.088 72.7285 351.661 70.2614 353.025C59.7323 358.836 29.7309 373.627 18.2766 361.742C4.31124 347.215 12.109 343.209 15.0607 340.567C17.5718 338.278 92.5532 276.649 113.7 259.217L113.744 259.261Z" fill="#141E39"/>
<path d="M270.755 105.936C270.755 105.936 317.233 111.482 328.599 100.389C339.921 89.2519 337.895 59.3176 337.895 59.3176L388.69 54.9595C388.69 54.9595 407.325 140.756 369.438 160.698C321.11 186.142 275.425 174.917 275.425 174.917L270.799 105.936H270.755Z" fill="#0A76D9"/>
<path d="M366.09 52.4063C365.694 52.4063 365.297 52.1422 365.165 51.746C360.054 36.7349 349.569 33.6534 349.481 33.6094C348.953 33.4773 348.644 32.9491 348.821 32.4208C348.953 31.8926 349.481 31.6284 350.01 31.7605C350.495 31.8925 361.596 35.1061 367.015 51.1297C367.191 51.658 366.927 52.1862 366.398 52.3623C366.31 52.3623 366.178 52.4063 366.09 52.4063Z" fill="black"/>
<path d="M107.135 357.075L168.284 312.394L183.35 337.75L178.901 450.224C178.901 450.224 154.318 444.853 107.135 357.075Z" fill="#ECEBEB"/>
<path d="M231.106 450.532C230.842 450.532 230.577 450.444 230.401 450.224C230.049 449.828 230.049 449.211 230.401 448.859C230.577 448.683 248.552 431.251 260.711 386.922C272.914 342.372 270.359 274.272 270.315 273.568C270.315 273.171 270.535 272.819 270.888 272.643L295.911 261.286C296.395 261.066 296.968 261.286 297.188 261.77C297.409 262.254 297.188 262.826 296.704 263.047L272.297 274.14C272.518 281.271 274.236 344.926 262.605 387.406C250.27 432.351 232.516 449.563 231.767 450.268C231.591 450.444 231.326 450.532 231.106 450.532Z" fill="white"/>
<path d="M188.637 349.372C188.373 349.372 188.108 349.372 187.756 349.284C177.623 347.611 172.997 322.783 172.777 321.727C172.689 321.286 172.909 320.846 173.306 320.67C173.702 320.494 174.187 320.582 174.451 320.934C178.901 326.261 193.263 343.957 190.796 348.271C190.487 348.799 189.871 349.372 188.593 349.372H188.637ZM175.553 325.292C177.535 333.392 181.941 346.378 188.108 347.391C188.769 347.523 189.122 347.391 189.166 347.303C190.267 345.366 183.306 334.933 175.553 325.292Z" fill="white"/>
<path d="M197.624 269.87C195.245 269.87 193.659 269.518 193.615 269.474C193.087 269.342 192.778 268.813 192.91 268.285C193.042 267.757 193.571 267.449 194.1 267.581C194.805 267.757 211.457 271.587 218.682 250.721C218.859 250.237 219.387 249.928 219.916 250.104C220.401 250.281 220.709 250.853 220.533 251.337C214.938 267.493 203.66 269.826 197.668 269.826L197.624 269.87Z" fill="white"/>
<path d="M336.529 117.777C334.767 117.777 333.225 117.161 331.948 115.929C327.41 111.571 327.63 100.829 327.63 100.345C327.63 99.949 327.85 99.6408 328.203 99.4647C328.555 99.3327 328.952 99.3767 329.26 99.6409C331.375 101.622 341.728 111.615 340.186 115.841C339.877 116.633 339.084 117.601 336.97 117.733C336.838 117.733 336.661 117.733 336.529 117.733V117.777ZM329.613 102.722C329.789 105.98 330.538 111.879 333.269 114.52C334.282 115.488 335.428 115.885 336.838 115.841C337.454 115.841 338.203 115.664 338.336 115.224C339.04 113.243 334.106 107.212 329.613 102.722Z" fill="#141E39"/>
<path d="M339.393 73.8446C338.908 73.8446 338.468 73.4483 338.424 72.9641C338.424 72.4358 338.776 71.9516 339.305 71.9076L389.748 67.7696C390.32 67.7696 390.761 68.1218 390.805 68.6501C390.805 69.1783 390.452 69.6626 389.924 69.7066L339.481 73.8446H339.393Z" fill="#141E39"/>
<path d="M299.127 181.608C298.378 181.476 298.069 180.947 298.157 180.419C303.664 155.679 293.444 141.461 293.311 141.329C293.003 140.888 293.091 140.272 293.532 139.964C293.972 139.656 294.589 139.744 294.897 140.184C295.338 140.8 305.779 155.195 300.052 180.859C299.964 181.3 299.567 181.608 299.083 181.608H299.127Z" fill="#141E39"/>
<path d="M258.949 111.35C247.715 111.35 243.485 103.647 243.441 103.515C243.177 103.03 243.353 102.458 243.838 102.194C244.322 101.93 244.895 102.106 245.159 102.59C245.424 103.074 251.9 114.652 271.504 106.552C271.989 106.332 272.562 106.552 272.782 107.08C273.002 107.609 272.782 108.137 272.253 108.357C267.011 110.514 262.605 111.35 258.949 111.35Z" fill="#141E39"/>
<path d="M236.657 103.207C236.657 103.207 190.179 108.753 178.813 97.6598C167.447 86.5666 169.517 55.0036 169.517 55.0036L118.722 50.6455C118.722 50.6455 97.5755 133.977 138.15 157.44C186.963 185.614 231.987 172.187 231.987 172.187L236.613 103.207H236.657Z" fill="#0A76D9"/>
<path d="M141.322 49.677C141.322 49.677 141.102 49.677 141.014 49.633C140.485 49.4569 140.221 48.9287 140.397 48.4004C145.86 32.3768 156.961 29.1192 157.446 29.0312C157.975 28.8991 158.503 29.2073 158.635 29.6915C158.768 30.2198 158.459 30.748 157.975 30.88C157.887 30.88 147.357 34.0056 142.247 49.0167C142.115 49.4129 141.718 49.677 141.322 49.677Z" fill="black"/>
<path d="M170.486 115.048C169.033 115.048 168.46 114.256 168.24 113.815C166.698 110.426 175.376 100.081 178.064 96.9995C178.328 96.6914 178.769 96.6034 179.121 96.7354C179.518 96.8675 179.738 97.2196 179.782 97.6158C179.782 98.056 180.002 108.313 175.553 112.891C174.143 114.344 172.469 115.048 170.486 115.048ZM177.755 100.389C173.262 105.804 169.385 111.659 170.002 113.023C170.002 113.067 170.222 113.111 170.486 113.111C171.94 113.111 173.13 112.583 174.187 111.526C176.786 108.885 177.535 103.603 177.755 100.389Z" fill="#141E39"/>
<path d="M168.988 69.8826L117.444 65.6567C116.916 65.6567 116.519 65.1284 116.563 64.6001C116.607 64.0719 117.092 63.7197 117.62 63.7197L169.077 67.9457C169.605 67.9457 170.002 68.474 169.958 69.0022C169.958 69.4865 169.473 69.8826 168.988 69.8826Z" fill="#141E39"/>
<path d="M266.306 87.9753C263.795 87.9753 262.209 83.4851 261.768 82.1205C261.68 81.7683 261.768 81.3721 262.032 81.152C262.297 80.8879 262.649 80.7999 263.002 80.932L270.359 83.3971C270.623 83.4852 270.843 83.7053 270.976 84.0134C271.064 84.2775 271.02 84.5857 270.887 84.8498C270.711 85.158 268.905 87.8433 266.482 88.0193H266.35L266.306 87.9753ZM264.367 83.3971C265.028 84.8938 265.865 86.0383 266.306 86.0383C267.099 85.9943 267.848 85.3781 268.42 84.7618L264.323 83.3971H264.367Z" fill="black"/>
<path d="M74.0502 352.629C73.7859 352.629 73.5656 352.541 73.3894 352.365C72.9929 351.969 72.9929 351.353 73.3894 351L80.4823 343.781C80.8787 343.385 81.4955 343.385 81.8479 343.781C82.2444 344.177 82.2444 344.793 81.8479 345.146L74.7551 352.365C74.7551 352.365 74.3146 352.673 74.0502 352.673V352.629Z" fill="#ECEBEB"/>
<path d="M15.2368 356.855C14.9725 356.855 14.6641 356.723 14.4879 356.503C14.1354 356.107 14.2235 355.491 14.62 355.138L127.885 264.279C128.282 263.927 128.898 264.015 129.251 264.411C129.603 264.807 129.515 265.424 129.119 265.776L15.8536 356.635C15.8536 356.635 15.4571 356.855 15.2368 356.855Z" fill="#ECEBEB"/>
<path d="M118.634 363.238C114.096 363.238 107.4 358.484 106.563 357.868C106.122 357.56 106.034 356.943 106.342 356.503C106.651 356.063 107.268 355.975 107.708 356.283C111.012 358.704 117.224 362.138 119.691 361.125C121.894 360.201 122.114 352.981 121.585 348.183C121.541 347.787 121.762 347.391 122.114 347.215C122.466 347.039 122.951 347.127 123.215 347.435C124.978 349.284 130.396 353.686 133.833 351.837C137.357 349.944 137.445 341.36 137.181 338.234C137.181 337.838 137.357 337.486 137.665 337.31C138.018 337.134 138.414 337.134 138.723 337.398C138.811 337.486 149.384 345.19 154.715 340.964C160.089 336.694 156.036 324.368 155.992 324.236C155.86 323.839 155.992 323.443 156.301 323.179C156.609 322.915 157.05 322.871 157.402 323.091C160.398 324.808 165.332 326.701 166.874 325.468C169.473 323.311 168.107 315.564 167.358 312.746C167.226 312.218 167.535 311.69 168.063 311.558C168.592 311.426 169.121 311.734 169.253 312.262C169.561 313.407 172.16 323.663 168.151 326.965C165.861 328.858 161.235 327.141 158.503 325.865C159.517 329.958 160.926 338.587 155.992 342.504C150.926 346.598 142.732 342.284 139.295 340.083C139.384 343.781 138.987 351.397 134.846 353.598C131.057 355.623 126.343 352.629 123.788 350.516C124.008 354.566 123.92 361.565 120.528 363.018C119.999 363.238 119.383 363.326 118.722 363.326L118.634 363.238Z" fill="white"/>
<path d="M334.282 35.6784C334.282 35.6784 336.838 11.731 345.693 14.0201C353.006 15.8689 345.693 41.7973 345.693 41.7973L334.282 35.6784Z" fill="#FD8753"/>
<path d="M175.641 30.748C175.641 30.748 173.923 7.68108 164.715 9.79409C157.358 11.4669 164.715 37.5713 164.715 37.5713L175.641 30.748Z" fill="#FD8753"/>
<path d="M230.842 62.5751C230.269 62.5751 229.872 62.0909 229.872 61.5627C230.665 37.9674 247.01 34.886 247.186 34.886C247.715 34.7539 248.199 35.1501 248.287 35.6783C248.375 36.2066 248.023 36.6908 247.494 36.7789C246.878 36.8669 232.516 39.6403 231.811 61.6067C231.811 62.135 231.37 62.5311 230.842 62.5311V62.5751Z" fill="#0A76D9"/>
<path d="M127.232 91.5022L127.232 91.5021C127.609 90.0335 128.274 88.7832 129.333 87.9447L129.334 87.9446C132.297 85.5977 136.817 86.4586 138.632 89.7536C139.253 90.881 139.531 92.1958 139.393 93.4595L139.393 93.4595C139.184 95.3784 138.014 97.1835 136.349 98.1581C135.705 98.5356 134.77 98.7752 133.643 99.0277C133.543 99.0502 133.44 99.0729 133.337 99.0959C132.363 99.3115 131.266 99.5545 130.403 99.9576C129.281 100.481 128.641 100.957 127.925 101.596C127.348 99.671 126.938 97.7312 126.855 95.7802C126.795 94.3901 126.878 92.8803 127.232 91.5022Z" stroke="#141E39" stroke-width="2"/>
<path d="M270.26 180.399L270.26 180.399C270.637 178.931 271.302 177.68 272.361 176.842L272.361 176.842C275.325 174.495 279.845 175.356 281.66 178.651C282.281 179.778 282.559 181.093 282.421 182.357L282.421 182.357C282.212 184.276 281.042 186.081 279.377 187.055C278.733 187.433 277.798 187.672 276.671 187.925C276.571 187.947 276.468 187.97 276.364 187.993C275.391 188.209 274.294 188.452 273.431 188.855C272.309 189.379 271.669 189.854 270.953 190.493C270.376 188.568 269.966 186.628 269.883 184.677C269.823 183.287 269.906 181.778 270.26 180.399Z" stroke="#141E39" stroke-width="2"/>
<path d="M281.809 120.838L281.809 120.838C282.185 119.37 282.851 118.119 283.91 117.281L283.91 117.281C286.874 114.934 291.394 115.795 293.209 119.09C293.83 120.217 294.108 121.532 293.97 122.796L293.97 122.796C293.761 124.714 292.591 126.52 290.926 127.494C290.281 127.872 289.347 128.111 288.22 128.364C288.12 128.386 288.017 128.409 287.913 128.432C286.94 128.648 285.843 128.891 284.98 129.294C283.858 129.817 283.218 130.293 282.502 130.932C281.925 129.007 281.515 127.067 281.432 125.116C281.372 123.726 281.455 122.216 281.809 120.838Z" stroke="#141E39" stroke-width="2"/>
<path d="M343.106 143.952L343.106 143.952C343.483 142.483 344.149 141.233 345.208 140.394L345.208 140.394C348.172 138.047 352.691 138.908 354.507 142.203C355.128 143.33 355.406 144.645 355.268 145.909L355.268 145.909C355.058 147.828 353.889 149.633 352.224 150.608C351.579 150.985 350.645 151.225 349.518 151.477C349.417 151.5 349.315 151.522 349.211 151.545C348.238 151.761 347.14 152.004 346.277 152.407C345.156 152.931 344.515 153.406 343.8 154.046C343.223 152.12 342.813 150.181 342.729 148.23C342.67 146.839 342.752 145.33 343.106 143.952Z" stroke="#141E39" stroke-width="2"/>
<path d="M356.72 83.4645L356.72 83.4645C358.223 83.271 359.63 83.4268 360.801 84.1008L360.801 84.1008C364.077 85.9867 364.949 90.5067 362.561 93.4139C361.744 94.4085 360.626 95.1537 359.402 95.4931L359.402 95.4931C357.543 96.0087 355.435 95.5901 353.914 94.4036C353.325 93.9439 352.757 93.1641 352.105 92.2102C352.047 92.1251 351.988 92.0383 351.929 91.9503C351.368 91.1254 350.737 90.1955 350.043 89.5426C349.142 88.6938 348.464 88.2747 347.605 87.8462C349.179 86.5974 350.828 85.498 352.609 84.698C353.878 84.1281 355.31 83.6459 356.72 83.4645Z" stroke="#141E39" stroke-width="2"/>
<path d="M236.006 125.539L236.006 125.539C237.509 125.346 238.916 125.502 240.086 126.176L240.086 126.176C243.362 128.062 244.234 132.582 241.846 135.489C241.03 136.483 239.912 137.229 238.688 137.568L238.688 137.568C236.829 138.084 234.72 137.665 233.199 136.479C232.61 136.019 232.042 135.239 231.391 134.285C231.333 134.2 231.274 134.113 231.214 134.025C230.654 133.2 230.022 132.27 229.329 131.618C228.427 130.769 227.749 130.35 226.89 129.921C228.464 128.672 230.114 127.573 231.894 126.773C233.163 126.203 234.595 125.721 236.006 125.539Z" stroke="#141E39" stroke-width="2"/>
<path d="M171.154 135.318L171.155 135.318C172.657 135.125 174.064 135.28 175.235 135.954L175.235 135.954C178.511 137.84 179.383 142.36 176.995 145.268C176.178 146.262 175.061 147.007 173.836 147.347L173.836 147.347C171.977 147.862 169.869 147.444 168.348 146.257C167.759 145.798 167.191 145.018 166.539 144.064C166.481 143.979 166.422 143.892 166.363 143.804C165.802 142.979 165.171 142.049 164.477 141.396C163.576 140.547 162.898 140.128 162.039 139.7C163.613 138.451 165.262 137.352 167.043 136.552C168.312 135.982 169.744 135.5 171.154 135.318Z" stroke="#141E39" stroke-width="2"/>
<path d="M202.237 156.024C203.434 156.342 204.23 156.387 205.19 156.355C204.4 158.203 203.472 159.955 202.287 161.506C201.443 162.612 200.413 163.718 199.259 164.549L199.259 164.549C198.029 165.435 196.718 165.967 195.368 165.932L195.367 165.932C191.589 165.833 188.67 162.273 189.386 158.58C189.631 157.316 190.259 156.129 191.174 155.247L191.174 155.247C192.563 153.909 194.617 153.273 196.519 153.592C197.256 153.716 198.127 154.131 199.154 154.66C199.246 154.707 199.339 154.756 199.433 154.805C200.319 155.263 201.317 155.78 202.237 156.024ZM202.237 156.024L202.493 155.057M202.237 156.024L202.493 155.057M202.493 155.057C201.686 154.843 200.79 154.38 199.88 153.909C198.791 153.347 197.683 152.773 196.685 152.606L205.609 155.335C204.456 155.393 203.739 155.387 202.493 155.057Z" stroke="#141E39" stroke-width="2"/>
<path d="M323.944 133.8C325.141 134.117 325.937 134.163 326.897 134.131C326.106 135.978 325.179 137.731 323.994 139.282C323.15 140.387 322.12 141.493 320.966 142.324L320.966 142.324C319.736 143.21 318.425 143.743 317.074 143.708L317.074 143.708C313.296 143.609 310.377 140.049 311.093 136.356C311.337 135.092 311.966 133.904 312.881 133.023L312.881 133.023C314.27 131.685 316.324 131.049 318.226 131.368C318.963 131.492 319.834 131.907 320.861 132.436C320.952 132.483 321.046 132.531 321.14 132.58C322.026 133.039 323.024 133.556 323.944 133.8ZM323.944 133.8L324.2 132.833M323.944 133.8L324.2 132.833M324.2 132.833C323.393 132.619 322.497 132.156 321.587 131.685C320.498 131.122 319.39 130.549 318.391 130.381L327.316 133.111C326.163 133.169 325.446 133.163 324.2 132.833Z" stroke="#141E39" stroke-width="2"/>
<path d="M243.991 218.252C245.188 218.57 245.984 218.615 246.943 218.583C246.153 220.431 245.226 222.183 244.041 223.734C243.196 224.84 242.166 225.946 241.012 226.777L241.012 226.777C239.783 227.663 238.471 228.195 237.121 228.16L237.121 228.16C233.342 228.061 230.423 224.502 231.139 220.808C231.384 219.544 232.012 218.357 232.927 217.475L232.927 217.475C234.317 216.137 236.37 215.501 238.273 215.82C239.01 215.944 239.88 216.359 240.907 216.888C240.999 216.935 241.092 216.984 241.187 217.033C242.072 217.491 243.07 218.008 243.991 218.252ZM243.991 218.252L244.247 217.285M243.991 218.252L244.247 217.285M244.247 217.285C243.439 217.071 242.543 216.608 241.633 216.138C240.545 215.575 239.437 215.001 238.438 214.834L247.362 217.563C246.21 217.621 245.492 217.615 244.247 217.285Z" stroke="#141E39" stroke-width="2"/>
<path d="M381.689 108.909C382.885 109.226 383.681 109.272 384.641 109.239C383.851 111.087 382.924 112.84 381.738 114.391C380.894 115.496 379.864 116.602 378.71 117.433L378.71 117.433C377.48 118.319 376.169 118.852 374.819 118.816L374.819 118.816C371.04 118.718 368.121 115.158 368.837 111.464C369.082 110.201 369.71 109.013 370.625 108.132L370.625 108.132C372.014 106.793 374.068 106.158 375.97 106.477C376.707 106.601 377.578 107.016 378.605 107.545C378.697 107.592 378.79 107.64 378.884 107.689C379.77 108.148 380.768 108.665 381.689 108.909ZM381.689 108.909L381.944 107.942M381.689 108.909L381.944 107.942M381.944 107.942C381.137 107.728 380.241 107.264 379.331 106.794C378.242 106.231 377.134 105.658 376.136 105.49L385.06 108.22C383.907 108.278 383.19 108.272 381.944 107.942Z" stroke="#141E39" stroke-width="2"/>
<path d="M144.985 128.617L144.985 128.617C145.392 130.078 145.44 131.493 144.941 132.749L144.941 132.75C143.546 136.265 139.201 137.78 135.982 135.835C134.881 135.17 133.984 134.171 133.472 133.007L133.472 133.007C132.695 131.241 132.807 129.093 133.762 127.416C134.132 126.766 134.822 126.091 135.672 125.309C135.748 125.239 135.825 125.168 135.904 125.096C136.639 124.423 137.468 123.663 138.015 122.882C138.725 121.867 139.042 121.136 139.342 120.223C140.804 121.602 142.128 123.077 143.175 124.724C143.921 125.898 144.603 127.247 144.985 128.617Z" stroke="#141E39" stroke-width="2"/>
<path d="M202.729 122.395L202.729 122.395C203.136 123.855 203.184 125.271 202.686 126.527L202.686 126.527C201.291 130.042 196.945 131.558 193.727 129.613C192.625 128.947 191.728 127.948 191.216 126.785L191.216 126.785C190.44 125.018 190.551 122.87 191.506 121.193C191.876 120.544 192.566 119.869 193.416 119.086C193.492 119.016 193.569 118.945 193.648 118.874C194.383 118.2 195.213 117.44 195.759 116.66C196.469 115.645 196.786 114.913 197.087 114C198.548 115.379 199.872 116.854 200.919 118.502C201.665 119.676 202.347 121.024 202.729 122.395Z" stroke="#141E39" stroke-width="2"/>
<path d="M289.79 218.403L289.79 218.403C290.197 219.863 290.245 221.279 289.747 222.535L289.747 222.535C288.351 226.051 284.006 227.566 280.787 225.622C279.686 224.956 278.789 223.957 278.278 222.794L278.278 222.794C277.501 221.027 277.612 218.879 278.568 217.202C278.938 216.552 279.628 215.877 280.478 215.095C280.554 215.025 280.631 214.954 280.709 214.882C281.445 214.208 282.274 213.449 282.82 212.668C283.531 211.653 283.848 210.921 284.148 210.009C285.609 211.387 286.934 212.862 287.98 214.51C288.726 215.684 289.409 217.032 289.79 218.403Z" stroke="#141E39" stroke-width="2"/>
<path d="M262.251 156.175L262.251 156.175C262.658 157.635 262.706 159.051 262.207 160.307L262.207 160.307C260.812 163.823 256.466 165.338 253.248 163.394C252.147 162.728 251.25 161.729 250.738 160.566L250.738 160.565C249.961 158.799 250.073 156.651 251.028 154.974C251.398 154.324 252.088 153.649 252.938 152.867C253.014 152.797 253.091 152.726 253.17 152.654C253.905 151.98 254.735 151.221 255.281 150.44C255.991 149.425 256.308 148.693 256.609 147.78C258.07 149.159 259.394 150.634 260.441 152.282C261.187 153.456 261.869 154.804 262.251 156.175Z" stroke="#141E39" stroke-width="2"/>
<path d="M229.38 185.512L229.381 185.512C229.788 186.972 229.836 188.388 229.337 189.644L229.337 189.644C227.942 193.159 223.596 194.675 220.378 192.73C219.277 192.064 218.379 191.065 217.868 189.902L217.868 189.902C217.091 188.135 217.202 185.987 218.157 184.31C218.528 183.661 219.217 182.986 220.067 182.203C220.143 182.133 220.221 182.062 220.299 181.991C221.035 181.317 221.864 180.557 222.41 179.777C223.12 178.762 223.437 178.03 223.738 177.117C225.199 178.496 226.523 179.971 227.57 181.619C228.316 182.793 228.999 184.141 229.38 185.512Z" stroke="#141E39" stroke-width="2"/>
<path d="M208.06 222.848L208.06 222.848C208.467 224.309 208.515 225.724 208.016 226.98L208.016 226.98C206.621 230.496 202.275 232.012 199.057 230.067C197.956 229.402 197.059 228.402 196.547 227.239L196.547 227.239C195.77 225.473 195.882 223.324 196.837 221.647C197.207 220.998 197.897 220.323 198.747 219.54C198.823 219.47 198.9 219.399 198.979 219.328C199.714 218.654 200.544 217.894 201.09 217.113C201.8 216.098 202.117 215.366 202.418 214.454C203.879 215.833 205.203 217.307 206.25 218.955C206.996 220.129 207.678 221.478 208.06 222.848Z" stroke="#141E39" stroke-width="2"/>
</g>
<defs>
<clipPath id="clip0_505_40">
<rect width="396" height="482" fill="white"/>
</clipPath>
</defs>
</svg>
