<svg width="98" height="21" viewBox="0 0 98 21" fill="none" xmlns="http://www.w3.org/2000/svg">
<path d="M4.96622 18.5676L6.28379 12.8716L1.86487 9.04055L7.70271 8.53379L9.97298 3.16217L12.2432 8.53379L18.0811 9.04055L13.6622 12.8716L14.9797 18.5676L9.97298 15.5473L4.96622 18.5676Z" fill="#61B3FB"/>
<path d="M24.4257 18.5676L25.7433 12.8716L21.3243 9.04055L27.1622 8.53379L29.4324 3.16217L31.7027 8.53379L37.5406 9.04055L33.1216 12.8716L34.4392 18.5676L29.4324 15.5473L24.4257 18.5676Z" fill="#61B3FB"/>
<path d="M43.885 18.5676L45.2026 12.8716L40.7837 9.04055L46.6215 8.53379L48.8918 3.16217L51.1621 8.53379L56.9999 9.04055L52.581 12.8716L53.8986 18.5676L48.8918 15.5473L43.885 18.5676Z" fill="#61B3FB"/>
<path d="M63.3445 18.5676L64.6621 12.8716L60.2432 9.04055L66.081 8.53379L68.3513 3.16217L70.6215 8.53379L76.4594 9.04055L72.0405 12.8716L73.358 18.5676L68.3513 15.5473L63.3445 18.5676Z" fill="#61B3FB"/>
<path d="M82.804 18.5676L84.1216 12.8716L79.7026 9.04055L85.5405 8.53379L87.8107 3.16217L90.081 8.53379L95.9189 9.04055L91.4999 12.8716L92.8175 18.5676L87.8107 15.5473L82.804 18.5676Z" fill="#61B3FB"/>
</svg>
