<svg width="90" height="81" viewBox="0 0 90 81" fill="none" xmlns="http://www.w3.org/2000/svg">
<g clip-path="url(#clip0_517_12)">
<mask id="mask0_517_12" style="mask-type:luminance" maskUnits="userSpaceOnUse" x="0" y="13" width="53" height="68">
<path d="M53 13H0V81H53V13Z" fill="white"/>
</mask>
<g mask="url(#mask0_517_12)">
<path d="M26.4701 80.9198C25.962 76.9811 25.713 72.9823 24.8861 69.1138C23.6109 63.1707 20.9908 57.7187 16.7169 53.3991C13.788 50.4226 9.71335 49.2299 5.70846 48.2177C4.01485 47.7968 2.29135 47.5262 0 47.0752C1.68365 46.5741 2.83929 46.1231 4.04474 45.8926C15.6111 43.7378 21.2897 37.8749 24.4378 26.5399C25.6632 22.1502 26.769 17.6903 26.6395 13C27.6656 15.4654 27.7951 18.0511 28.2235 20.5968C29.5286 28.2136 31.4513 35.5999 37.6479 40.9216C40.4474 43.3269 43.7947 44.4594 47.4111 44.9605C49.284 45.2211 51.1271 45.6721 52.99 46.0429C52.7509 46.7044 52.1831 46.7043 51.665 46.8246C47.8594 47.6965 44.3128 49.2399 40.7462 50.8034C36.9705 52.457 35.0278 55.7844 32.9756 58.9714C29.5784 64.233 28.0541 70.106 27.7154 76.3497C27.6258 77.9132 27.2472 79.4666 27.0081 81.0201C26.8288 80.99 26.6395 80.9599 26.4601 80.9399M40.1784 47.0451C34.4002 44.71 30.1164 39.2679 26.9085 30.2881C24.2186 37.0931 21.2 43.5875 13.6186 46.534C17.4143 48.5384 19.5462 51.8457 21.7878 55.0628C24.0094 58.2398 25.444 61.8077 26.8088 65.4357C28.7117 57.3779 32.5671 50.9637 40.1784 47.0451Z" fill="#0A76D9"/>
</g>
</g>
<g clip-path="url(#clip1_517_12)">
<mask id="mask1_517_12" style="mask-type:luminance" maskUnits="userSpaceOnUse" x="53" y="0" width="37" height="47">
<path d="M90 0H53V47H90V0Z" fill="white"/>
</mask>
<g mask="url(#mask1_517_12)">
<path d="M71.4791 46.9446C71.1244 44.2223 70.9506 41.4584 70.3733 38.7845C69.4831 34.6768 67.6539 30.9085 64.6703 27.9229C62.6256 25.8656 59.781 25.0413 56.9852 24.3416C55.8028 24.0507 54.5996 23.8637 53 23.552C54.1754 23.2056 54.9821 22.8939 55.8237 22.7346C63.8983 21.2452 67.8626 17.1929 70.0603 9.35844C70.9158 6.32439 71.6878 3.24186 71.5974 0C72.3137 1.70405 72.4041 3.49123 72.7032 5.2507C73.6143 10.5153 74.9566 15.6205 79.2825 19.2987C81.2368 20.9612 83.5737 21.744 86.0983 22.0903C87.4058 22.2705 88.6925 22.5822 89.993 22.8385C89.8261 23.2957 89.4297 23.2957 89.068 23.3788C86.4113 23.9814 83.9353 25.0482 81.4455 26.1288C78.8096 27.2718 77.4534 29.5716 76.0207 31.7744C73.6491 35.4111 72.585 39.4703 72.3485 43.7859C72.2859 44.8665 72.0216 45.9402 71.8547 47.0139C71.7295 46.9931 71.5974 46.9723 71.4722 46.9584M81.0491 23.5312C77.0152 21.9172 74.0246 18.1558 71.7852 11.9492C69.9073 16.6526 67.8 21.1413 62.5073 23.1779C65.1571 24.5633 66.6455 26.8492 68.2103 29.0728C69.7613 31.2687 70.7628 33.7347 71.7156 36.2423C73.044 30.673 75.7355 26.2396 81.0491 23.5312Z" fill="#0A76D9"/>
</g>
</g>
<defs>
<clipPath id="clip0_517_12">
<rect width="53" height="68" fill="white" transform="translate(0 13)"/>
</clipPath>
<clipPath id="clip1_517_12">
<rect width="37" height="47" fill="white" transform="translate(53)"/>
</clipPath>
</defs>
</svg>
