<svg width="147" height="152" viewBox="0 0 147 152" fill="none" xmlns="http://www.w3.org/2000/svg">
<g clip-path="url(#clip0_320_3)">
<mask id="mask0_320_3" style="mask-type:luminance" maskUnits="userSpaceOnUse" x="0" y="10" width="95" height="109">
<path d="M94.2675 30.163L24.9703 10.621L-5.126e-06 99.1675L69.2973 118.71L94.2675 30.163Z" fill="white"/>
</mask>
<g mask="url(#mask0_320_3)">
<path d="M34.639 108.823C35.421 103.507 36.5638 98.2081 36.9032 92.8658C37.4183 84.6567 35.9945 76.5913 31.9926 69.3907C29.2561 64.4348 24.3664 61.3795 19.5018 58.5847C17.442 57.4121 15.2879 56.4243 12.4575 54.9922C14.8429 54.9604 16.5195 54.7993 18.1803 54.9436C34.0945 56.4025 43.6721 50.8618 51.9506 37.2626C55.1647 31.9984 58.2483 26.5987 59.8013 20.4434C60.2376 24.0322 59.4574 27.4469 59.0828 30.9196C57.9922 41.3191 57.7938 51.6461 63.9417 60.8607C66.7187 65.0249 70.6795 67.7339 75.2239 69.7198C77.577 70.7497 79.8212 72.0165 82.1208 73.1863C81.5653 73.9594 80.8229 73.7501 80.1014 73.7156C74.8053 73.4478 69.6014 74.1499 64.364 74.8707C58.82 75.6318 55.0581 79.2482 51.2045 82.6415C44.8306 88.2404 40.6811 95.3258 37.9454 103.331C37.2541 105.334 36.1886 107.217 35.3056 109.152C35.0822 109.047 34.8457 108.938 34.6186 108.846M65.0016 69.7674C58.3042 64.5962 54.7014 55.9303 53.8046 43.0544C47.7888 50.9238 41.4572 58.2674 30.4625 59.3089C34.6893 63.3184 36.2624 68.4111 38.0118 73.4268C39.75 78.3829 40.3155 83.5578 40.7678 88.7852C46.2146 78.9944 53.611 72.0637 65.0016 69.7674Z" fill="#0A76D9"/>
</g>
</g>
<g clip-path="url(#clip1_320_3)">
<mask id="mask1_320_3" style="mask-type:luminance" maskUnits="userSpaceOnUse" x="75" y="0" width="72" height="83">
<path d="M146.842 15.5142L94.0301 0.621033L74.9999 68.1035L127.812 82.9966L146.842 15.5142Z" fill="white"/>
</mask>
<g mask="url(#mask1_320_3)">
<path d="M101.399 75.4621C101.995 71.4106 102.866 67.3722 103.124 63.3008C103.517 57.0446 102.432 50.8978 99.3819 45.4102C97.2963 41.6332 93.5699 39.3047 89.8625 37.1748C88.2927 36.2811 86.651 35.5283 84.494 34.4368C86.3119 34.4127 87.5897 34.2898 88.8553 34.3998C100.984 35.5116 108.283 31.289 114.592 20.9249C117.042 16.913 119.392 12.7979 120.575 8.10681C120.908 10.8418 120.313 13.4442 120.028 16.0909C119.197 24.0164 119.045 31.8868 123.731 38.9093C125.847 42.0829 128.866 44.1474 132.329 45.6609C134.122 46.4458 135.833 47.4113 137.585 48.3028C137.162 48.892 136.596 48.7325 136.046 48.7062C132.01 48.5021 128.044 49.0372 124.053 49.5865C119.827 50.1666 116.96 52.9227 114.024 55.5088C109.166 59.7757 106.003 65.1756 103.919 71.2767C103.392 72.8031 102.58 74.2383 101.907 75.7127C101.736 75.6325 101.556 75.5494 101.383 75.4792M124.539 45.6973C119.434 41.7562 116.689 35.1518 116.005 25.3389C111.42 31.3363 106.595 36.933 98.2158 37.7266C101.437 40.7824 102.636 44.6636 103.969 48.4861C105.294 52.2632 105.725 56.207 106.07 60.191C110.221 52.7292 115.858 47.4473 124.539 45.6973Z" fill="#0A76D9"/>
</g>
</g>
<g clip-path="url(#clip2_320_3)">
<mask id="mask2_320_3" style="mask-type:luminance" maskUnits="userSpaceOnUse" x="55" y="91" width="53" height="61">
<path d="M107.608 102.5L69.0301 91.621L55.129 140.915L93.7072 151.794L107.608 102.5Z" fill="white"/>
</mask>
<g mask="url(#mask2_320_3)">
<path d="M74.4127 146.291C74.8481 143.331 75.4843 140.381 75.6732 137.407C75.96 132.837 75.1673 128.347 72.9395 124.338C71.416 121.579 68.6939 119.879 65.9857 118.323C64.839 117.67 63.6398 117.12 62.0642 116.323C63.3921 116.305 64.3255 116.215 65.2501 116.296C74.1096 117.108 79.4415 114.023 84.0502 106.453C85.8395 103.522 87.5561 100.516 88.4207 97.0892C88.6636 99.0871 88.2293 100.988 88.0207 102.921C87.4136 108.711 87.3032 114.46 90.7257 119.59C92.2717 121.908 94.4767 123.416 97.0065 124.522C98.3166 125.095 99.5659 125.8 100.846 126.451C100.537 126.882 100.124 126.765 99.7219 126.746C96.7735 126.597 93.8765 126.988 90.9608 127.389C87.8744 127.813 85.7802 129.826 83.6348 131.715C80.0865 134.832 77.7764 138.777 76.2534 143.233C75.8685 144.348 75.2754 145.397 74.7838 146.474C74.6594 146.415 74.5278 146.354 74.4014 146.303M91.3158 124.548C87.5873 121.669 85.5816 116.845 85.0823 109.677C81.7333 114.058 78.2084 118.146 72.0877 118.726C74.4407 120.958 75.3165 123.793 76.2904 126.585C77.258 129.344 77.5729 132.225 77.8247 135.135C80.8569 129.685 84.9745 125.827 91.3158 124.548Z" fill="#0A76D9"/>
</g>
</g>
<defs>
<clipPath id="clip0_320_3">
<rect width="72" height="92" fill="white" transform="translate(24.9703 10.621) rotate(15.7485)"/>
</clipPath>
<clipPath id="clip1_320_3">
<rect width="54.8721" height="70.1144" fill="white" transform="translate(94.0301 0.621033) rotate(15.7485)"/>
</clipPath>
<clipPath id="clip2_320_3">
<rect width="40.0828" height="51.2169" fill="white" transform="translate(69.0301 91.621) rotate(15.7485)"/>
</clipPath>
</defs>
</svg>
