<svg width="147" height="152" viewBox="0 0 147 152" fill="none" xmlns="http://www.w3.org/2000/svg">
<g clip-path="url(#clip0_433_462)">
<mask id="mask0_433_462" style="mask-type:luminance" maskUnits="userSpaceOnUse" x="0" y="10" width="95" height="109">
<path d="M94.2676 29.542L24.9703 10L5.59092e-05 98.5465L69.2973 118.088L94.2676 29.542Z" fill="white"/>
</mask>
<g mask="url(#mask0_433_462)">
<path d="M34.6391 108.202C35.4211 102.886 36.5638 97.587 36.9032 92.2447C37.4183 84.0357 35.9946 75.9702 31.9927 68.7697C29.2561 63.8138 24.3665 60.7584 19.5018 57.9637C17.442 56.7911 15.2879 55.8033 12.4576 54.3711C14.843 54.3394 16.5196 54.1782 18.1803 54.3226C34.0945 55.7814 43.6722 50.2408 51.9507 36.6416C55.1648 31.3774 58.2483 25.9777 59.8013 19.8224C60.2377 23.4111 59.4575 26.8259 59.0828 30.2986C57.9922 40.6981 57.7939 51.0251 63.9418 60.2396C66.7188 64.4039 70.6796 67.1128 75.2239 69.0988C77.5771 70.1286 79.8212 71.3955 82.1209 72.5652C81.5654 73.3384 80.8229 73.129 80.1014 73.0946C74.8054 72.8268 69.6014 73.5289 64.3641 74.2497C58.8201 75.0108 55.0582 78.6272 51.2046 82.0205C44.8307 87.6193 40.6811 94.7048 37.9455 102.71C37.2541 104.713 36.1887 106.596 35.3056 108.531C35.0822 108.426 34.8458 108.317 34.6187 108.225M65.0017 69.1464C58.3042 63.9752 54.7015 55.3093 53.8047 42.4334C47.7888 50.3028 41.4572 57.6464 30.4626 58.6878C34.6894 62.6974 36.2624 67.7901 38.0119 72.8058C39.75 77.7619 40.3156 82.9367 40.7679 88.1642C46.2147 78.3733 53.611 71.4427 65.0017 69.1464Z" fill="#0A76D9"/>
</g>
</g>
<g clip-path="url(#clip1_433_462)">
<mask id="mask1_433_462" style="mask-type:luminance" maskUnits="userSpaceOnUse" x="75" y="0" width="72" height="83">
<path d="M146.842 14.8932L94.0302 0L75 67.4824L127.812 82.3756L146.842 14.8932Z" fill="white"/>
</mask>
<g mask="url(#mask1_433_462)">
<path d="M101.399 74.841C101.995 70.7896 102.866 66.7512 103.124 62.6797C103.517 56.4235 102.432 50.2768 99.382 44.7891C97.2964 41.0122 93.57 38.6836 89.8625 36.5537C88.2927 35.6601 86.6511 34.9072 84.494 33.8158C86.312 33.7916 87.5897 33.6688 88.8554 33.7788C100.984 34.8906 108.283 30.668 114.592 20.3039C117.042 16.292 119.392 12.1768 120.575 7.48578C120.908 10.2208 120.313 12.8232 120.028 15.4698C119.197 23.3954 119.045 31.2658 123.731 38.2883C125.847 41.4619 128.866 43.5264 132.329 45.0399C134.122 45.8248 135.833 46.7903 137.585 47.6818C137.162 48.271 136.596 48.1114 136.046 48.0852C132.01 47.8811 128.044 48.4161 124.053 48.9655C119.827 49.5455 116.961 52.3017 114.024 54.8877C109.166 59.1547 106.004 64.5546 103.919 70.6557C103.392 72.182 102.58 73.6173 101.907 75.0917C101.737 75.0114 101.556 74.9284 101.383 74.8581M124.539 45.0762C119.434 41.1352 116.689 34.5308 116.005 24.7179C111.42 30.7153 106.595 36.3119 98.2159 37.1056C101.437 40.1614 102.636 44.0426 103.969 47.8651C105.294 51.6422 105.725 55.586 106.07 59.5699C110.221 52.1082 115.858 46.8263 124.539 45.0762Z" fill="#0A76D9"/>
</g>
</g>
<g clip-path="url(#clip2_433_462)">
<mask id="mask2_433_462" style="mask-type:luminance" maskUnits="userSpaceOnUse" x="55" y="91" width="53" height="61">
<path d="M107.608 101.879L69.0302 91L55.1291 140.294L93.7072 151.173L107.608 101.879Z" fill="white"/>
</mask>
<g mask="url(#mask2_433_462)">
<path d="M74.4128 145.67C74.8481 142.71 75.4843 139.76 75.6733 136.786C75.96 132.216 75.1674 127.726 72.9395 123.717C71.4161 120.958 68.694 119.257 65.9858 117.702C64.8391 117.049 63.6399 116.499 62.0642 115.702C63.3922 115.684 64.3256 115.594 65.2501 115.675C74.1096 116.487 79.4416 113.402 84.0502 105.832C85.8396 102.901 87.5562 99.8949 88.4208 96.4682C88.6637 98.4661 88.2293 100.367 88.0208 102.3C87.4136 108.09 87.3032 113.839 90.7258 118.969C92.2717 121.287 94.4767 122.795 97.0066 123.901C98.3166 124.474 99.566 125.179 100.846 125.83C100.537 126.261 100.124 126.144 99.7219 126.125C96.7736 125.976 93.8765 126.367 90.9609 126.768C87.8745 127.192 85.7802 129.205 83.6349 131.094C80.0865 134.211 77.7764 138.156 76.2535 142.612C75.8686 143.727 75.2755 144.776 74.7839 145.853C74.6595 145.794 74.5279 145.733 74.4014 145.682M91.3158 123.927C87.5873 121.048 85.5817 116.224 85.0824 109.056C81.7333 113.437 78.2085 117.525 72.0877 118.105C74.4408 120.337 75.3165 123.172 76.2905 125.964C77.2581 128.723 77.5729 131.604 77.8247 134.514C80.857 129.064 84.9746 125.205 91.3158 123.927Z" fill="#0A76D9"/>
</g>
</g>
<defs>
<clipPath id="clip0_433_462">
<rect width="72" height="92" fill="white" transform="translate(24.9703 10) rotate(15.7485)"/>
</clipPath>
<clipPath id="clip1_433_462">
<rect width="54.8721" height="70.1144" fill="white" transform="translate(94.0302) rotate(15.7485)"/>
</clipPath>
<clipPath id="clip2_433_462">
<rect width="40.0828" height="51.2169" fill="white" transform="translate(69.0302 91) rotate(15.7485)"/>
</clipPath>
</defs>
</svg>
